<svg width="960" height="960" xmlns="http://www.w3.org/2000/svg" xmlns:xlink="http://www.w3.org/1999/xlink" xml:space="preserve" overflow="hidden"><g transform="translate(-1720 -774)"><path d="M1720 1254C1720 988.903 1934.9 774 2200 774 2465.1 774 2680 988.903 2680 1254 2680 1519.1 2465.1 1734 2200 1734 1934.9 1734 1720 1519.1 1720 1254Z" fill="#6DBA76" fill-rule="evenodd"/><path d="M1986.15 949.371 2126.16 888.08 2086.57 1035.7 1946.56 1096.99Z" fill="#2B2A28" fill-rule="evenodd"/><path d="M1878.18 1050.93 1918.12 983.426 1936.43 1059.69 1896.49 1127.19Z" fill="#2B2A28" fill-rule="evenodd"/><path d="M2001.88 1088.14 1970.47 1148.19 1896.35 1149.51Z" fill="#2B2A28" fill-rule="evenodd"/><path d="M1817.75 1197.17 1836.39 1084.24 1889.09 1185.85 1870.44 1298.78Z" fill="#2B2A28" fill-rule="evenodd"/><path d="M1947.11 1169.36 1959.45 1235.99 1901.93 1282.77Z" fill="#2B2A28" fill-rule="evenodd"/><path d="M1979.68 1309.99 1986.43 1377.42 1925.21 1419.24Z" fill="#2B2A28" fill-rule="evenodd"/><path d="M1883.44 1496.92 1985.35 1431.29 2085.68 1468.23Z" fill="#2B2A28" fill-rule="evenodd"/><path d="M1777.8 1263.47 1910.87 1333.91 1878.73 1450.86Z" fill="#2B2A28" fill-rule="evenodd"/><path d="M1955.57 1623.86 2022.88 1514.86 2136.73 1518.56Z" fill="#2B2A28" fill-rule="evenodd"/><path d="M2110 1582 2200.34 1484 2287 1582Z" fill="#2B2A28" fill-rule="evenodd"/><path d="M0 137.752 66.2162 0 132.432 137.752 66.2162 275.504Z" fill="#2B2A28" fill-rule="evenodd" transform="matrix(-0.758299 0.651907 0.651907 0.758299 2324.05 845.644)"/><path d="M0 72.6938 29.4544 0 58.9088 72.6938 29.4544 145.388Z" fill="#2B2A28" fill-rule="evenodd" transform="matrix(-0.988866 0.148807 0.148807 0.988866 2511 979.773)"/><path d="M0 36.1279 57.3382 0 122.079 36.1279Z" fill="#2B2A28" fill-rule="evenodd" transform="matrix(0.864434 0.502747 0.502747 -0.864434 2379.96 1120.1)"/><path d="M0 108.612 36.1143 0 72.2286 108.612 36.1143 217.223Z" fill="#2B2A28" fill-rule="evenodd" transform="matrix(-0.987641 -0.156736 -0.156736 0.987641 2599.27 1090.63)"/><path d="M0 36.1279 57.3382 0 122.079 36.1279Z" fill="#2B2A28" fill-rule="evenodd" transform="matrix(0.370059 0.929008 0.929008 -0.370059 2419.33 1183.46)"/><path d="M0 36.1279 57.3382 0 122.079 36.1279Z" fill="#2B2A28" fill-rule="evenodd" transform="matrix(0.446145 0.894961 0.894961 -0.446145 2387.99 1326.84)"/><path d="M0 50.6675 110.122 0 204.266 50.6675Z" fill="#2B2A28" fill-rule="evenodd" transform="matrix(-0.990087 -0.140455 -0.140455 0.990087 2523.67 1447.49)"/><path d="M0 83.7563 125.117 0 212.845 83.7563Z" fill="#2B2A28" fill-rule="evenodd" transform="matrix(-0.474168 0.880434 0.880434 0.474168 2548.45 1224.48)"/><path d="M0 60.4155 112.962 0 209.533 60.4155Z" fill="#2B2A28" fill-rule="evenodd" transform="matrix(-0.86457 -0.502512 -0.502512 0.86457 2474.78 1572.35)"/></g></svg>